<?xml version="1.0" standalone="no"?>
<!DOCTYPE svg PUBLIC "-//W3C//DTD SVG 20010904//EN"
 "http://www.w3.org/TR/2001/REC-SVG-20010904/DTD/svg10.dtd">
<svg version="1.0" xmlns="http://www.w3.org/2000/svg"
 width="200.000000pt" height="200.000000pt" viewBox="0 0 200.000000 200.000000"
 preserveAspectRatio="xMidYMid meet">
<metadata>
Created by potrace 1.14, written by Peter Selinger 2001-2017
</metadata>
<g transform="translate(0.000000,200.000000) scale(0.100000,-0.100000)"
fill="#000000" stroke="none">
<path d="M905 1830 c-157 -22 -283 -87 -401 -204 -142 -142 -205 -292 -207
-491 -1 -185 54 -334 178 -477 35 -40 159 -169 277 -285 194 -193 217 -213
248 -213 31 0 53 19 233 198 332 329 396 411 445 577 19 64 24 103 24 195 0
136 -24 233 -86 345 -52 92 -179 219 -271 271 -127 70 -300 103 -440 84z m185
-356 c75 -22 162 -109 184 -184 34 -115 12 -206 -73 -291 -85 -85 -176 -107
-291 -73 -75 22 -162 109 -184 184 -34 116 -12 206 73 291 85 84 176 107 291
73z"/>
</g>
</svg>
