<?xml version="1.0" standalone="no"?>
<!DOCTYPE svg PUBLIC "-//W3C//DTD SVG 20010904//EN"
 "http://www.w3.org/TR/2001/REC-SVG-20010904/DTD/svg10.dtd">
<svg version="1.0" xmlns="http://www.w3.org/2000/svg"
 width="200.000000pt" height="200.000000pt" viewBox="0 0 200.000000 200.000000"
 preserveAspectRatio="xMidYMid meet">
<metadata>
Created by potrace 1.14, written by Peter Selinger 2001-2017
</metadata>
<g transform="translate(0.000000,200.000000) scale(0.100000,-0.100000)"
fill="#000000" stroke="none">
<path d="M382 1631 c-52 -18 -69 -28 -61 -35 330 -279 675 -556 685 -552 18 7
673 549 673 557 1 3 -18 14 -41 25 -40 18 -78 19 -623 21 -541 3 -584 1 -633
-16z"/>
<path d="M189 1453 c-27 -70 -30 -136 -27 -485 4 -319 6 -369 22 -410 25 -66
95 -141 164 -175 l57 -28 595 0 595 0 57 28 c72 35 141 110 165 180 16 47 18
90 18 432 0 294 -3 391 -14 428 -8 26 -18 50 -22 53 -5 3 -165 -124 -355 -282
-368 -305 -392 -321 -476 -308 -22 4 -54 17 -73 29 -18 13 -179 145 -358 294
-179 149 -328 271 -331 271 -4 0 -11 -12 -17 -27z"/>
</g>
</svg>
