<?xml version="1.0" standalone="no"?>
<!DOCTYPE svg PUBLIC "-//W3C//DTD SVG 20010904//EN"
 "http://www.w3.org/TR/2001/REC-SVG-20010904/DTD/svg10.dtd">
<svg version="1.0" xmlns="http://www.w3.org/2000/svg"
 width="200.000000pt" height="200.000000pt" viewBox="0 0 200.000000 200.000000"
 preserveAspectRatio="xMidYMid meet">
<metadata>
Created by potrace 1.14, written by Peter Selinger 2001-2017
</metadata>
<g transform="translate(0.000000,200.000000) scale(0.100000,-0.100000)"
fill="#000000" stroke="none">
<path d="M125 1988 c-44 -15 -101 -74 -114 -117 -16 -53 -14 -89 8 -136 38
-84 123 -126 211 -105 l48 11 268 -271 c148 -149 270 -277 271 -283 2 -7 -5
-22 -15 -35 l-18 -23 -156 49 c-86 28 -161 52 -166 56 -5 3 -12 19 -15 35 -8
41 -69 99 -112 107 -82 15 -151 -23 -181 -102 -20 -51 -11 -100 28 -149 55
-70 144 -71 240 -3 13 9 46 2 171 -37 l155 -48 5 -66 c3 -36 8 -75 12 -86 5
-17 -25 -39 -224 -158 l-230 -137 -40 21 c-48 25 -126 27 -169 5 -65 -34 -109
-116 -99 -188 19 -144 196 -208 300 -110 41 39 58 77 61 135 l1 51 229 138
229 137 34 -29 c68 -60 110 -75 208 -75 82 0 95 3 147 31 l56 31 145 -146 145
-146 -15 -35 c-39 -90 9 -217 101 -275 43 -26 59 -30 121 -30 62 0 78 4 121
30 30 19 60 49 79 79 26 43 30 59 30 121 0 62 -4 78 -30 121 -62 100 -187 141
-291 95 l-48 -22 -145 145 -145 145 18 38 c40 85 33 201 -18 285 l-33 55 186
265 186 265 55 -1 c108 -1 190 77 190 181 0 69 -28 125 -80 159 -162 107 -354
-66 -269 -243 l20 -42 -177 -253 c-97 -139 -180 -256 -183 -260 -3 -4 -33 2
-66 14 -73 24 -164 21 -225 -10 l-40 -20 -274 279 -273 279 14 53 c12 41 13
61 4 94 -29 106 -143 167 -246 131z"/>
</g>
</svg>
