<?xml version="1.0" standalone="no"?>
<!DOCTYPE svg PUBLIC "-//W3C//DTD SVG 20010904//EN"
 "http://www.w3.org/TR/2001/REC-SVG-20010904/DTD/svg10.dtd">
<svg version="1.0" xmlns="http://www.w3.org/2000/svg"
 width="200.000000pt" height="200.000000pt" viewBox="0 0 200.000000 200.000000"
 preserveAspectRatio="xMidYMid meet">
<metadata>
Created by potrace 1.14, written by Peter Selinger 2001-2017
</metadata>
<g transform="translate(0.000000,200.000000) scale(0.100000,-0.100000)"
fill="#000000" stroke="none">
<path d="M315 1801 c-151 -70 -179 -253 -57 -363 68 -62 172 -74 247 -29 l32
19 146 -147 c137 -137 145 -147 131 -166 -8 -11 -20 -37 -26 -57 l-11 -38 -78
0 -78 0 -11 41 c-14 50 -72 116 -125 140 -173 79 -365 -113 -286 -286 34 -76
123 -135 201 -135 86 0 187 76 209 158 l12 42 78 0 78 0 11 -38 c6 -20 18 -46
26 -57 14 -19 6 -29 -130 -166 l-145 -146 -46 24 c-175 88 -376 -105 -294
-282 68 -146 240 -179 352 -66 72 72 88 175 40 256 l-19 32 147 146 c137 137
147 145 166 131 11 -8 36 -19 57 -25 l38 -10 0 -78 0 -78 -41 -12 c-86 -26
-159 -122 -159 -211 0 -111 106 -220 212 -220 120 0 228 104 228 220 0 85 -68
178 -151 207 l-49 18 0 77 0 77 38 10 c21 6 46 17 57 25 19 14 29 6 166 -130
l146 -145 -24 -46 c-41 -81 -26 -172 40 -242 89 -93 216 -94 308 -2 88 87 92
204 11 293 -70 78 -167 99 -255 55 l-46 -24 -145 146 c-136 137 -144 147 -130
166 8 11 19 36 25 57 l10 38 78 0 78 0 12 -41 c7 -22 29 -59 49 -81 90 -100
219 -104 313 -9 88 87 92 204 11 293 -93 103 -231 103 -324 0 -20 -22 -42 -59
-49 -81 l-12 -41 -78 0 -78 0 -10 38 c-6 21 -17 46 -25 57 -14 19 -6 29 130
166 l145 146 46 -24 c84 -42 173 -26 244 46 88 87 92 204 11 293 -90 100 -227
103 -319 7 -66 -70 -81 -161 -40 -242 l24 -46 -146 -145 c-137 -136 -147 -144
-166 -130 -11 8 -37 20 -57 26 l-38 11 0 78 0 78 42 12 c82 22 158 123 158
209 0 78 -59 167 -135 201 -173 79 -365 -113 -286 -286 24 -53 90 -111 140
-125 l41 -11 0 -78 0 -78 -38 -11 c-20 -6 -46 -18 -57 -26 -19 -14 -29 -6
-166 131 l-147 146 19 32 c45 75 33 179 -29 247 -67 75 -164 98 -247 59z m765
-43 c132 -67 132 -249 0 -315 -24 -13 -60 -23 -80 -23 -49 0 -120 38 -147 79
-61 92 -31 209 67 259 24 12 60 22 80 22 20 0 56 -10 80 -22z m-600 -600 c132
-67 132 -249 0 -315 -56 -29 -104 -29 -160 0 -132 66 -132 248 0 315 24 12 60
22 80 22 20 0 56 -10 80 -22z m1200 0 c132 -67 132 -249 0 -315 -56 -29 -104
-29 -160 0 -132 66 -132 248 0 315 24 12 60 22 80 22 20 0 56 -10 80 -22z
m-600 -600 c132 -67 132 -249 0 -316 -56 -28 -104 -28 -160 0 -132 67 -132
249 0 316 24 12 60 22 80 22 20 0 56 -10 80 -22z"/>
</g>
</svg>
